<svg viewBox="0 0 1395 764" fill="none" xmlns="http://www.w3.org/2000/svg">
<ellipse cx="12" cy="-146.5" rx="1383" ry="910.5" fill="#E6BA1E"/>
<rect x="246" y="586" width="383" height="80" fill="#636363"/>
<rect x="259" y="594" width="358" height="58" fill="#454545"/>
<rect x="315" y="153" width="483" height="303" fill="#636363"/>
<rect x="533" y="382" width="47" height="146" fill="#636363"/>
<rect x="334" y="177" width="444" height="256" fill="black"/>
<rect x="635" y="177" width="143" height="256" fill="#353434"/>
<rect x="650" y="200" width="112" height="214" fill="#4D4C4C"/>
<path d="M158.438 752.228C155.758 669.856 185.701 594.19 201.008 566.654C212.521 542.168 251.878 503.081 317.203 542.628C382.527 582.174 415.029 681.19 423.114 725.754L389.202 732.7C375.892 734.541 348.275 738.537 344.291 739.789C340.307 741.042 307.691 745.103 291.881 746.977L212.986 755.513L158.537 759.728L158.438 752.228Z" fill="#CF2B2B"/>
<ellipse cx="556.5" cy="528.5" rx="93.5" ry="28.5" fill="#636363"/>
<g id="head">
    <ellipse cx="266" cy="498" rx="106" ry="100" fill="#B59A72"/>
    <ellipse cx="247.5" cy="486.5" rx="99.5" ry="111.5" fill="#222121"/>
    <circle cx="183" cy="447" r="64" fill="black"/>
</g>
<rect x="670" y="512" width="76" height="99" fill="#1B0F36"/>
<ellipse cx="708" cy="513" rx="38" ry="14" fill="#3C3057"/>
<ellipse cx="708.5" cy="518" rx="32.5" ry="9" fill="#573719"/>
<ellipse cx="708" cy="610" rx="38" ry="11" fill="#1B0F36"/>
<g id="smoke">
    <path d="M701.928 486C700.095 488.167 696.828 493.3 698.428 496.5C700.428 500.5 703.428 503 700.928 506" stroke="#676767"/>
    <path d="M709.856 486.5C708.023 488.667 704.756 493.8 706.356 497C708.356 501 711.356 503.5 708.856 506.5" stroke="#676767"/>
    <path d="M717.856 486.5C716.023 488.667 712.756 493.8 714.356 497C716.356 501 719.356 503.5 716.856 506.5" stroke="#676767"/>
</g>
<path d="M770.956 565C770.956 578.757 760.212 589.5 747.456 589.5C734.7 589.5 723.956 578.757 723.956 565C723.956 551.243 734.7 540.5 747.456 540.5C760.212 540.5 770.956 551.243 770.956 565Z" stroke="#1B0F36" stroke-width="15"/>
<rect id="one" x="355" y="200" width="262" height="11" fill="#5AF312"/>
<rect id="two" x="355" y="218" width="133" height="11" fill="#F312DD"/>
<rect id="three" x="355" y="236" width="186" height="11" fill="#F312DD"/>
<rect id="four" x="355" y="254" width="225" height="11" fill="#5AF312"/>
<rect id="five" x="355" y="272" width="72" height="11" fill="#5AF312"/>
<rect id="six" x="355" y="290" width="100" height="11" fill="#F312DD"/>
<rect id="seven" x="355" y="308" width="119" height="11" fill="#5AF312"/>
<rect id="eight" x="355" y="326" width="202" height="11" fill="#5AF312"/>
<rect id="nine" x="355" y="344" width="100" height="11" fill="#5AF312"/>
<rect id="ten" x="355" y="362" width="72" height="11" fill="#F3EA12"/>
<rect id="eleven" x="355" y="380" width="49" height="11" fill="#5AF312"/>



<style>
            #one{
                animation: ones 5s linear normal forwards 0s;
            }
            @keyframes ones{ 
                0% {
                    width: 0px;
                }
                10% {
                   width: 262px;
                } 
            }

            #two{
                animation: twos 5s linear normal forwards 0s;
            }
            @keyframes twos{ 
                0%{
                    width: 0px;
                }
                20% {
                   width: 133px;
                } 
            }
            #three{
                animation: three 5s linear normal forwards 0s;
            }
            @keyframes three{ 
                0%{
                    width: 0px;
                }
                20% {
                   width: 186px;
                } 
            }
            #four{
                animation: four 5s linear normal forwards 0s;
            }
            @keyframes four{ 
                0%{
                    width: 0px;
                }
                20% {
                   width: 225px;
                } 
            }
            #five{
                animation: five 5s linear normal forwards 0s;
            }
            @keyframes five{ 
                0%{
                    width: 0px;
                }
                20% {
                   width: 72px;
                } 
            }
            #six{
                animation: six 5s linear normal forwards 0s;
            }
            @keyframes six{ 
                0%{
                    width: 0px;
                }
                20% {
                   width: 100px;
                } 
            }
            #seven{
                animation: seven 5s linear normal forwards 0s;
            }
            @keyframes seven{ 
                0%{
                    width: 0px;
                }
                20% {
                   width: 119px;
                } 
            }
            #eight{
                animation: eight 5s linear normal forwards 0s;
            }
            @keyframes eight{ 
                0%{
                    width: 0px;
                }
                20% {
                   width: 202px;
                } 
            }
            #nine{
                animation: nine 5s linear normal forwards 0s;
            }
            @keyframes nine{ 
                0%{
                    width: 0px;
                }
                20% {
                   width: 100px;
                } 
            }
            #ten{
                animation: ten 5s linear normal forwards 0s;
            }
            @keyframes ten{ 
                0%{
                    width: 0px;
                }
                20% {
                   width: 72px;
                } 
            }
            #eleven{
                animation: eleven 5s linear normal forwards 0s;
            }
            @keyframes eleven{ 
                0%{
                    width: 0px;
                }
                20% {
                   width: 49px;
                } 
            }
            #smoke{
                animation: eleven 2s linear infinite normal forwards 0s;
            }
            @keyframes eleven{ 
                0%{
                    opacity: 0;
                }
                100% {
                     opacity: 1;
                } 
            }
            #head{
                animation: head 10s linear infinite normal forwards 0s;
            }
            @keyframes head{ 
                0%{
                    transform: translate(0px, 0px);
                }
                50% {
                     transform: translate(0px, -20px);
                } 
                100%{
                    transform: translate(0px, 0px);
                }
            }
</style>
</svg>
