<svg width="532" height="48" viewBox="0 0 532 48" fill="none" xmlns="http://www.w3.org/2000/svg">
<path d="M29.75 37.625H13.3125L10.1875 47H0.21875L17.1562 1.5H25.8438L42.875 47H32.9062L29.75 37.625ZM15.8438 30.0312H27.2188L21.5 13L15.8438 30.0312ZM84.125 47H74.75L56.5 17.0625V47H47.125V1.5H56.5L74.7812 31.5V1.5H84.125V47ZM128.312 41.25C126.625 43.2708 124.24 44.8438 121.156 45.9688C118.073 47.0729 114.656 47.625 110.906 47.625C106.969 47.625 103.51 46.7708 100.531 45.0625C97.5729 43.3333 95.2812 40.8333 93.6562 37.5625C92.0521 34.2917 91.2292 30.4479 91.1875 26.0312V22.9375C91.1875 18.3958 91.9479 14.4688 93.4688 11.1562C95.0104 7.82292 97.2188 5.28125 100.094 3.53125C102.99 1.76042 106.375 0.875 110.25 0.875C115.646 0.875 119.865 2.16667 122.906 4.75C125.948 7.3125 127.75 11.0521 128.312 15.9688H119.188C118.771 13.3646 117.844 11.4583 116.406 10.25C114.99 9.04167 113.031 8.4375 110.531 8.4375C107.344 8.4375 104.917 9.63542 103.25 12.0312C101.583 14.4271 100.74 17.9896 100.719 22.7188V25.625C100.719 30.3958 101.625 34 103.438 36.4375C105.25 38.875 107.906 40.0938 111.406 40.0938C114.927 40.0938 117.438 39.3438 118.938 37.8438V30H110.406V23.0938H128.312V41.25ZM163.312 27.2812H145.312V39.4688H166.438V47H135.938V1.5H166.375V9.09375H145.312V19.9375H163.312V27.2812ZM181.312 39.4688H201.219V47H171.938V1.5H181.312V39.4688ZM232.938 37.625H216.5L213.375 47H203.406L220.344 1.5H229.031L246.062 47H236.094L232.938 37.625ZM219.031 30.0312H230.406L224.688 13L219.031 30.0312Z" fill="#1B0F36"/>
<path d="M286.031 31.8438C285.677 36.7396 283.865 40.5938 280.594 43.4062C277.344 46.2188 273.052 47.625 267.719 47.625C261.885 47.625 257.292 45.6667 253.938 41.75C250.604 37.8125 248.938 32.4167 248.938 25.5625V22.7812C248.938 18.4062 249.708 14.5521 251.25 11.2188C252.792 7.88542 254.99 5.33333 257.844 3.5625C260.719 1.77083 264.052 0.875 267.844 0.875C273.094 0.875 277.323 2.28125 280.531 5.09375C283.74 7.90625 285.594 11.8542 286.094 16.9375H276.719C276.49 14 275.667 11.875 274.25 10.5625C272.854 9.22917 270.719 8.5625 267.844 8.5625C264.719 8.5625 262.375 9.6875 260.812 11.9375C259.271 14.1667 258.479 17.6354 258.438 22.3438V25.7812C258.438 30.6979 259.177 34.2917 260.656 36.5625C262.156 38.8333 264.51 39.9688 267.719 39.9688C270.615 39.9688 272.771 39.3125 274.188 38C275.625 36.6667 276.448 34.6146 276.656 31.8438H286.031ZM329.562 25.2812C329.562 29.7604 328.771 33.6875 327.188 37.0625C325.604 40.4375 323.333 43.0417 320.375 44.875C317.438 46.7083 314.062 47.625 310.25 47.625C306.479 47.625 303.115 46.7188 300.156 44.9062C297.198 43.0938 294.906 40.5104 293.281 37.1562C291.656 33.7812 290.833 29.9062 290.812 25.5312V23.2812C290.812 18.8021 291.615 14.8646 293.219 11.4688C294.844 8.05208 297.125 5.4375 300.062 3.625C303.021 1.79167 306.396 0.875 310.188 0.875C313.979 0.875 317.344 1.79167 320.281 3.625C323.24 5.4375 325.521 8.05208 327.125 11.4688C328.75 14.8646 329.562 18.7917 329.562 23.25V25.2812ZM320.062 23.2188C320.062 18.4479 319.208 14.8229 317.5 12.3438C315.792 9.86458 313.354 8.625 310.188 8.625C307.042 8.625 304.615 9.85417 302.906 12.3125C301.198 14.75 300.333 18.3333 300.312 23.0625V25.2812C300.312 29.9271 301.167 33.5312 302.875 36.0938C304.583 38.6562 307.042 39.9375 310.25 39.9375C313.396 39.9375 315.812 38.7083 317.5 36.25C319.188 33.7708 320.042 30.1667 320.062 25.4375V23.2188ZM353.219 30.3438H345.75V47H336.375V1.5H353.281C358.656 1.5 362.802 2.69792 365.719 5.09375C368.635 7.48958 370.094 10.875 370.094 15.25C370.094 18.3542 369.417 20.9479 368.062 23.0312C366.729 25.0938 364.698 26.7396 361.969 27.9688L371.812 46.5625V47H361.75L353.219 30.3438ZM345.75 22.75H353.312C355.667 22.75 357.49 22.1562 358.781 20.9688C360.073 19.7604 360.719 18.1042 360.719 16C360.719 13.8542 360.104 12.1667 358.875 10.9375C357.667 9.70833 355.802 9.09375 353.281 9.09375H345.75V22.75ZM414.625 25.2812C414.625 29.7604 413.833 33.6875 412.25 37.0625C410.667 40.4375 408.396 43.0417 405.438 44.875C402.5 46.7083 399.125 47.625 395.312 47.625C391.542 47.625 388.177 46.7188 385.219 44.9062C382.26 43.0938 379.969 40.5104 378.344 37.1562C376.719 33.7812 375.896 29.9062 375.875 25.5312V23.2812C375.875 18.8021 376.677 14.8646 378.281 11.4688C379.906 8.05208 382.188 5.4375 385.125 3.625C388.083 1.79167 391.458 0.875 395.25 0.875C399.042 0.875 402.406 1.79167 405.344 3.625C408.302 5.4375 410.583 8.05208 412.188 11.4688C413.812 14.8646 414.625 18.7917 414.625 23.25V25.2812ZM405.125 23.2188C405.125 18.4479 404.271 14.8229 402.562 12.3438C400.854 9.86458 398.417 8.625 395.25 8.625C392.104 8.625 389.677 9.85417 387.969 12.3125C386.26 14.75 385.396 18.3333 385.375 23.0625V25.2812C385.375 29.9271 386.229 33.5312 387.938 36.0938C389.646 38.6562 392.104 39.9375 395.312 39.9375C398.458 39.9375 400.875 38.7083 402.562 36.25C404.25 33.7708 405.104 30.1667 405.125 25.4375V23.2188ZM458.438 47H449.062L430.812 17.0625V47H421.438V1.5H430.812L449.094 31.5V1.5H458.438V47ZM494 27.2812H476V39.4688H497.125V47H466.625V1.5H497.062V9.09375H476V19.9375H494V27.2812ZM512 39.4688H531.906V47H502.625V1.5H512V39.4688Z" fill="#4D4C4C"/>
</svg>
