<?xml version="1.0" encoding="UTF-8" standalone="no"?>
<!-- Created with Inkscape (http://www.inkscape.org/) -->

<svg
   xmlns:dc="http://purl.org/dc/elements/1.1/"
   xmlns:cc="http://creativecommons.org/ns#"
   xmlns:rdf="http://www.w3.org/1999/02/22-rdf-syntax-ns#"
   xmlns:svg="http://www.w3.org/2000/svg"
   xmlns="http://www.w3.org/2000/svg"
   xmlns:sodipodi="http://sodipodi.sourceforge.net/DTD/sodipodi-0.dtd"
   xmlns:inkscape="http://www.inkscape.org/namespaces/inkscape"
   width="70mm"
   height="50mm"
   viewBox="0 0 70 50"
   version="1.1"
   id="svg6233"
   inkscape:version="0.92.0 r15299"
   sodipodi:docname="cloud2.svg">
  <defs
     id="defs6227" />
  <sodipodi:namedview
     id="base"
     pagecolor="#ffffff"
     bordercolor="#666666"
     borderopacity="1.0"
     inkscape:pageopacity="0.0"
     inkscape:pageshadow="2"
     inkscape:zoom="0.7"
     inkscape:cx="456.94032"
     inkscape:cy="269.54807"
     inkscape:document-units="mm"
     inkscape:current-layer="layer3"
     showgrid="false"
     inkscape:window-width="1366"
     inkscape:window-height="705"
     inkscape:window-x="-8"
     inkscape:window-y="-8"
     inkscape:window-maximized="1" />
  <metadata
     id="metadata6230">
    <rdf:RDF>
      <cc:Work
         rdf:about="">
        <dc:format>image/svg+xml</dc:format>
        <dc:type
           rdf:resource="http://purl.org/dc/dcmitype/StillImage" />
        <dc:title></dc:title>
      </cc:Work>
    </rdf:RDF>
  </metadata>
  <g
     inkscape:groupmode="layer"
     id="layer3"
     inkscape:label="clouds2"
     style="display:inline"
     transform="translate(0,-247)">
    <path
       style="display:inline;fill:#f9f9f9;stroke:none;stroke-width:0.26458332px;stroke-linecap:butt;stroke-linejoin:miter;stroke-opacity:1"
       d="m 11.906251,289.91294 46.585565,0.0945 c 0,0 3.30729,-1.5119 3.68527,-2.55134 0.37797,-1.03943 1.70089,-2.55133 1.6064,-4.06324 -0.0945,-1.5119 -0.56697,-3.87425 -1.51191,-4.81919 -0.94494,-0.94494 -3.40178,-1.98438 -3.40178,-1.98438 0,0 0.28348,-3.49628 -0.37798,-4.34673 -0.66146,-0.85044 -2.55134,-3.30729 -3.59077,-3.68526 -1.03944,-0.37798 -1.03944,-0.85045 -3.11831,-1.03944 -2.07887,-0.18898 -4.44122,-0.0945 -4.44122,-0.0945 0,0 1.03944,-4.53572 -2.17336,-7.18155 -3.2128,-2.64583 -3.87426,-4.06324 -7.55953,-4.15774 -3.68526,-0.0945 -6.89806,0.47247 -8.50446,1.98438 -1.606396,1.5119 -3.496276,5.19717 -3.496276,5.19717 0,0 -2.645837,-1.22842 -4.346729,-0.94494 -1.700893,0.28348 -3.590774,0.0945 -5.480656,1.79539 -1.889879,1.70089 -3.023809,2.55134 -3.307292,3.96875 -0.283482,1.41741 -0.283482,4.81919 -0.283482,4.81919 0,0 -2.078869,-0.56696 -4.0632438,1.22843 -1.984375,1.79538 -3.307291,4.44122 -3.401784,5.19717 -0.09449,0.75595 -0.661459,3.49628 -0.09449,4.81919 0.566963,1.32292 2.645834,3.59078 3.212796,4.06325 0.566965,0.47247 4.0632458,1.70089 4.0632458,1.70089 z"
       id="path6793"
       inkscape:connector-curvature="0" />
  </g>
</svg>
