<?xml version="1.0" encoding="UTF-8" standalone="no"?>
<!-- Created with Inkscape (http://www.inkscape.org/) -->

<svg
   xmlns:dc="http://purl.org/dc/elements/1.1/"
   xmlns:cc="http://creativecommons.org/ns#"
   xmlns:rdf="http://www.w3.org/1999/02/22-rdf-syntax-ns#"
   xmlns:svg="http://www.w3.org/2000/svg"
   xmlns="http://www.w3.org/2000/svg"
   xmlns:sodipodi="http://sodipodi.sourceforge.net/DTD/sodipodi-0.dtd"
   xmlns:inkscape="http://www.inkscape.org/namespaces/inkscape"
   width="70mm"
   height="50mm"
   viewBox="0 0 70 50"
   version="1.1"
   id="cloud1"
   inkscape:version="0.92.0 r15299"
   sodipodi:docname="cloud1.svg">

  <defs
     id="defs6227" />
  <sodipodi:namedview
     id="base"
     pagecolor="#ffffff"
     bordercolor="#666666"
     borderopacity="1.0"
     inkscape:pageopacity="0.0"
     inkscape:pageshadow="2"
     inkscape:zoom="0.7"
     inkscape:cx="456.94032"
     inkscape:cy="269.54807"
     inkscape:document-units="mm"
     inkscape:current-layer="layer2"
     showgrid="false"
     inkscape:window-width="1366"
     inkscape:window-height="705"
     inkscape:window-x="-8"
     inkscape:window-y="-8"
     inkscape:window-maximized="1" />
  <metadata
     id="metadata6230">
    <rdf:RDF>
      <cc:Work
         rdf:about="">
        <dc:format>image/svg+xml</dc:format>
        <dc:type
           rdf:resource="http://purl.org/dc/dcmitype/StillImage" />
        <dc:title></dc:title>
      </cc:Work>
    </rdf:RDF>
  </metadata>
  <g
     inkscape:groupmode="layer"
     id="layer2"
     inkscape:label="clouds"
     style="display:inline"
     transform="translate(0,-247)">
    <path
       style="display:inline;fill:#f9f9f9;fill-opacity:1;stroke:none;stroke-width:0.26458332px;stroke-linecap:butt;stroke-linejoin:miter;stroke-opacity:1"
       d="m 13.418155,286.22767 h 49.325892 c 0,0 1.41741,-0.94494 2.55134,-2.07886 1.133928,-1.13393 2.83482,-2.55134 2.645834,-4.06325 -0.18899,-1.5119 -0.0945,-3.30729 -0.566965,-4.34672 -0.472472,-1.03944 -2.362351,-3.49628 -4.063244,-3.87426 -1.700895,-0.37797 -2.740329,-1.5119 -4.252232,-0.66146 -1.511906,0.85045 -1.795388,0.85045 -1.795388,0.85045 0,0 0.472471,-1.79539 -0.661459,-3.68527 -1.133927,-1.88988 -1.606399,-2.64583 -2.551337,-3.68527 -0.944941,-1.03943 -1.700895,-1.79538 -3.212798,-2.36235 -1.511906,-0.56696 -2.456847,-1.32291 -4.15774,-1.13393 -1.700892,0.18899 -3.212795,0 -4.063243,0.47247 -0.850447,0.47247 -1.133927,0.47247 -1.133927,0.47247 0,0 0,-1.32291 -1.984375,-3.49628 -1.984375,-2.17336 -4.063246,-4.15773 -6.992562,-4.6302 -2.929313,-0.47248 -5.008184,-0.94494 -7.181546,-0.0945 -2.173363,0.85045 -3.49628,1.22842 -4.724703,2.55134 -1.228422,1.32292 -1.984375,1.79539 -3.118303,4.53572 -1.133929,2.74032 -1.417411,4.06324 -1.417411,4.81919 0,0.75595 0,0.75595 0,0.75595 0,0 -2.267857,-1.03943 -4.630209,0.28349 -2.3623506,1.32291 -3.1183026,2.36235 -3.8742556,3.77976 -0.755952,1.41741 -1.511904,1.22842 -1.700892,3.87425 -0.188989,2.64584 -1.133929,5.00819 1.228422,7.27605 2.362351,2.26785 6.3311016,4.44121 6.3311016,4.44121 z"
       id="path6791"
       inkscape:connector-curvature="0" />
  </g>
</svg>
