<svg width="1280" height="220" viewBox="0 0 1280 220" fill="none" xmlns="http://www.w3.org/2000/svg">
<g clip-path="url(#clip0)">
<rect x="-5" y="81" width="1287" height="58" fill="#C1834D"/>
<path d="M4 67.5823L27.9712 26L53 67.5823V193H4V67.5823Z" fill="#C49A73"/>
<path d="M933 67.5823L956.971 26L982 67.5823V193H933V67.5823Z" fill="#C49A73"/>
<path d="M236 67.5823L259.482 26L284 67.5823V193H236V67.5823Z" fill="#C49A73"/>
<path d="M1165 67.5823L1188.48 26L1213 67.5823V193H1165V67.5823Z" fill="#C49A73"/>
<path d="M526 67.5823L549.482 26L574 67.5823V193H526V67.5823Z" fill="#C49A73"/>
<path d="M62 67.5823L85.9712 26L111 67.5823V193H62V67.5823Z" fill="#C49A73"/>
<path d="M991 67.5823L1014.97 26L1040 67.5823V193H991V67.5823Z" fill="#C49A73"/>
<path d="M294 67.5823L317.971 26L343 67.5823V193H294V67.5823Z" fill="#C49A73"/>
<path d="M1223 67.5823L1246.97 26L1272 67.5823V193H1223V67.5823Z" fill="#C49A73"/>
<path d="M584 67.5823L607.971 26L633 67.5823V193H584V67.5823Z" fill="#C49A73"/>
<path d="M120 67.5823L143.971 26L169 67.5823V193H120V67.5823Z" fill="#C49A73"/>
<path d="M1049 67.5823L1072.97 26L1098 67.5823V193H1049V67.5823Z" fill="#C49A73"/>
<path d="M352 67.5823L375.971 26L401 67.5823V193H352V67.5823Z" fill="#C49A73"/>
<path d="M642 67.5823L665.482 26L690 67.5823V193H642V67.5823Z" fill="#C49A73"/>
<path d="M178 67.5823L201.482 26L226 67.5823V193H178V67.5823Z" fill="#C49A73"/>
<path d="M1107 67.5823L1130.48 26L1155 67.5823V193H1107V67.5823Z" fill="#C49A73"/>
<path d="M468 67.5823L491.482 26L516 67.5823V193H468V67.5823Z" fill="#C49A73"/>
<path d="M410 67.5823L433.971 26L459 67.5823V193H410V67.5823Z" fill="#C49A73"/>
<path d="M700 67.5823L723.971 26L749 67.5823V193H700V67.5823Z" fill="#C49A73"/>
<path d="M758 67.5823L781.971 26L807 67.5823V193H758V67.5823Z" fill="#C49A73"/>
<path d="M816 67.5823L839.971 26L865 67.5823V193H816V67.5823Z" fill="#C49A73"/>
<path d="M875 67.5823L898.482 26L923 67.5823V193H875V67.5823Z" fill="#C49A73"/>
</g>
<defs>
<clipPath id="clip0">
<rect width="1282" height="220" fill="white"/>
</clipPath>
</defs>
</svg>
