<?xml version="1.0" encoding="UTF-8" standalone="no"?>
<!-- Created with Inkscape (http://www.inkscape.org/) -->

<svg
   xmlns:dc="http://purl.org/dc/elements/1.1/"
   xmlns:cc="http://creativecommons.org/ns#"
   xmlns:rdf="http://www.w3.org/1999/02/22-rdf-syntax-ns#"
   xmlns:svg="http://www.w3.org/2000/svg"
   xmlns="http://www.w3.org/2000/svg"
   xmlns:sodipodi="http://sodipodi.sourceforge.net/DTD/sodipodi-0.dtd"
   xmlns:inkscape="http://www.inkscape.org/namespaces/inkscape"
   width="180mm"
   height="100mm"
   viewBox="0 0 180 100"
   version="1.1"
   id="svg6476"
   style="enable-background:new"
   inkscape:version="0.92.0 r15299"
   sodipodi:docname="logo.svg">
  <defs
     id="defs6470" />
  <sodipodi:namedview
     id="base"
     pagecolor="#ffffff"
     bordercolor="#666666"
     borderopacity="1.0"
     inkscape:pageopacity="0.0"
     inkscape:pageshadow="2"
     inkscape:zoom="0.7"
     inkscape:cx="534.92125"
     inkscape:cy="281.69408"
     inkscape:document-units="mm"
     inkscape:current-layer="layer1"
     showgrid="false"
     inkscape:window-width="1366"
     inkscape:window-height="705"
     inkscape:window-x="-8"
     inkscape:window-y="-8"
     inkscape:window-maximized="1" />
  <metadata
     id="metadata6473">
    <rdf:RDF>
      <cc:Work
         rdf:about="">
        <dc:format>image/svg+xml</dc:format>
        <dc:type
           rdf:resource="http://purl.org/dc/dcmitype/StillImage" />
        <dc:title></dc:title>
      </cc:Work>
    </rdf:RDF>
  </metadata>
  <g style="opacity: 0;"
     inkscape:label="Layer 1"
     inkscape:groupmode="layer"
     id="layer1"
     transform="translate(0,-197)">
    <path
       style="fill:#ffffff;stroke-width:0.35277778"
       d="m 80.027884,259.83031 c -2.543796,-0.77378 -4.861467,-2.78709 -5.800672,-5.03891 -0.677432,-1.6242 -0.710273,-5.19959 -0.06201,-6.7511 0.7,-1.67534 2.577584,-3.6837 4.233688,-4.52858 0.788776,-0.40241 2.391304,-0.80618 3.561179,-0.89729 1.901596,-0.14808 2.370085,-0.0393 4.420097,1.02662 1.864078,0.96922 2.498993,1.53622 3.393871,3.03083 1.844332,3.08037 1.913995,5.80393 0.229122,8.95805 -1.805778,3.38047 -6.362679,5.29928 -9.975275,4.20038 z m 6.0839,-3.28047 c 1.613309,-1.23053 2.385049,-2.93958 2.385049,-5.2818 0,-4.98247 -5.085165,-7.91281 -9.371926,-5.4006 -3.940504,2.30929 -3.911553,8.73184 0.04978,11.04359 1.957684,1.14247 5.186084,0.97438 6.937097,-0.36119 z m -42.770506,-5.20936 v -8.46667 h 5.291667 5.291666 v 1.05834 c 0,0.59391 -0.19351,1.07279 -0.440972,1.09128 -0.242535,0.0181 -2.06816,0.007 -4.056944,-0.0255 l -3.615973,-0.0585 v 2.65861 2.6586 l 3.439584,0.10097 3.439583,0.10097 0.111627,0.97014 0.111627,0.97013 h -3.551211 -3.55121 v 3.70417 3.70417 H 44.576 43.341278 Z m 16.227778,0 v -8.46667 h 1.234722 1.234722 v 7.40834 7.40833 h 4.056944 4.056945 v 1.05833 1.05834 h -5.291667 -5.291666 z m 57.855554,0 v -8.46667 l 1.32292,0.01 c 1.32002,0.01 1.32947,0.0205 4.32152,4.93802 1.64924,2.71056 3.07799,4.92787 3.175,4.92737 0.097,-3.5e-4 1.53647,-2.18293 3.19879,-4.84982 2.92465,-4.69209 3.06441,-4.85245 4.32153,-4.9584 l 1.29913,-0.10949 v 8.48796 8.48797 h -1.22619 -1.2262 l -0.0967,-5.87598 -0.0967,-5.87598 -2.38343,3.71793 c -1.31089,2.04485 -2.58915,3.88865 -2.84058,4.09732 -1.02051,0.84694 -2.05028,-0.0388 -4.58614,-3.94451 l -2.53708,-3.90761 -0.0967,5.89441 -0.0967,5.89442 h -1.22619 -1.22619 z m -16.66947,-0.12891 c -1.973932,-0.7367 -3.657786,-2.1635 -4.753912,-4.02818 -0.834002,-1.41877 -0.978006,-2.05333 -0.978006,-4.30958 0,-2.25625 0.144004,-2.89081 0.978006,-4.30957 2.495105,-4.24458 7.927072,-5.72452 12.079452,-3.29106 5.98145,3.50536 5.78401,12.28893 -0.34708,15.44092 -1.77864,0.9144 -5.20657,1.15877 -6.97846,0.49747 z m 6.11377,-2.7899 c 4.01037,-2.70259 4.11394,-8.09165 0.21108,-10.98347 -1.42406,-1.05516 -5.40337,-1.05516 -6.82743,0 -3.902851,2.89182 -3.799283,8.28088 0.21109,10.98347 1.66365,1.12114 4.7416,1.12114 6.40526,0 z"
       id="path7042"
       inkscape:connector-curvature="0" />
         
   <animateMotion dur="1.3s" repeatCount="1">
            <mpath href="#wire"></mpath>
   </animateMotion>
   <path d="M0,-30 0,10 0,-5 0,0" stroke="red" fill="none" id="wire"></path>
   <animate attributeType="CSS" attributeName="opacity" set="0" to="1" begin="0.5s" dur="1s" repeatCount="1" fill="freeze"/>
    
  </g>

        

</svg>
