<svg id="logo" xmlns="http://www.w3.org/2000/svg" xmlns:xlink="http://www.w3.org/1999/xlink" viewBox="0 0 180 100" shape-rendering="geometricPrecision" text-rendering="geometricPrecision"><style><![CDATA[#logo-path7042_to {animation: logo-path7042_to__to 3000ms linear 1 normal forwards}@keyframes logo-path7042_to__to { 0% {transform: translate(89.202393px,175.120865px)} 6.666667% {transform: translate(89.202393px,213.620865px)} 13.333333% {transform: translate(89.202393px,252.120865px)} 23.333333% {transform: translate(89.202393px,241.120865px)} 30% {transform: translate(89.202393px,244.120865px)} 100% {transform: translate(89.202393px,244.120865px)} }]]></style><g id="logo-layer1" transform="matrix(1 0 0 1 0 -197)"><g id="logo-path7042_to" transform="translate(89.202393,175.120865)"><path id="logo-path7042" d="M80.027884,259.830310C77.484088,259.056530,75.166417,257.043220,74.227212,254.791400C73.549780,253.167200,73.516939,249.591810,74.165202,248.040300C74.865202,246.364960,76.742786,244.356600,78.398890,243.511720C79.187666,243.109310,80.790194,242.705540,81.960069,242.614430C83.861665,242.466350,84.330154,242.575130,86.380166,243.641050C88.244244,244.610270,88.879159,245.177270,89.774037,246.671880C91.618369,249.752250,91.688032,252.475810,90.003159,255.629930C88.197381,259.010400,83.640480,260.929210,80.027884,259.830310ZM86.111784,256.549840C87.725093,255.319310,88.496833,253.610260,88.496833,251.268040C88.496833,246.285570,83.411668,243.355230,79.124907,245.867440C75.184403,248.176730,75.213354,254.599280,79.174687,256.911030C81.132371,258.053500,84.360771,257.885410,86.111784,256.549840ZM43.341278,251.340480L43.341278,242.873810L48.632945,242.873810L53.924611,242.873810L53.924611,243.932150C53.924611,244.526060,53.731101,245.004940,53.483639,245.023430C53.241104,245.041530,51.415479,245.030430,49.426695,244.997930L45.810722,244.939430L45.810722,247.598040L45.810722,250.256640L49.250306,250.357610L52.689889,250.458580L52.801516,251.428720L52.913143,252.398850L49.361932,252.398850L45.810722,252.398850L45.810722,256.103020L45.810722,259.807190L44.576000,259.807190L43.341278,259.807190ZM59.569056,251.340480L59.569056,242.873810L60.803778,242.873810L62.038500,242.873810L62.038500,250.282150L62.038500,257.690480L66.095444,257.690480L70.152389,257.690480L70.152389,258.748810L70.152389,259.807150L64.860722,259.807150L59.569056,259.807150ZM117.424610,251.340480L117.424610,242.873810L118.747530,242.883810C120.067550,242.893810,120.077000,242.904310,123.069050,247.821830C124.718290,250.532390,126.147040,252.749700,126.244050,252.749200C126.341050,252.748850,127.780520,250.566270,129.442840,247.899380C132.367490,243.207290,132.507250,243.046930,133.764370,242.940980L135.063500,242.831490L135.063500,251.319450L135.063500,259.807420L133.837310,259.807420L132.611110,259.807420L132.514410,253.931440L132.417710,248.055460L130.034280,251.773390C128.723390,253.818240,127.445130,255.662040,127.193700,255.870710C126.173190,256.717650,125.143420,255.831910,122.607560,251.926200L120.070480,248.018590L119.973780,253.913000L119.877080,259.807420L118.650890,259.807420L117.424700,259.807420ZM100.755140,251.211570C98.781208,250.474870,97.097354,249.048070,96.001228,247.183390C95.167226,245.764620,95.023222,245.130060,95.023222,242.873810C95.023222,240.617560,95.167226,239.983000,96.001228,238.564240C98.496333,234.319660,103.928300,232.839720,108.080680,235.273180C114.062130,238.778540,113.864690,247.562110,107.733600,250.714100C105.954960,251.628500,102.527030,251.872870,100.755140,251.211570ZM106.868910,248.421670C110.879280,245.719080,110.982850,240.330020,107.079990,237.438200C105.655930,236.383040,101.676620,236.383040,100.252560,237.438200C96.349709,240.330020,96.453277,245.719080,100.463650,248.421670C102.127300,249.542810,105.205250,249.542810,106.868910,248.421670Z" transform="translate(-89.202393,-247.120865)" fill="rgb(255,255,255)" stroke="none" stroke-width="0.352778"/>
</g></g></svg>